<svg width="100%" height="100%" viewBox="0 0 32 32" version="1.1" xmlns="http://www.w3.org/2000/svg" xmlns:xlink="http://www.w3.org/1999/xlink" xml:space="preserve" xmlns:serif="http://www.serif.com/" style="fill-rule:evenodd;clip-rule:evenodd;stroke-linejoin:round;stroke-miterlimit:2;"><g><path d="M12.148,7.065l0,17.82l-2.209,0l-0,-2.114c-0.476,0.897 -0.95,1.51 -1.416,1.848c-0.64,0.458 -1.387,0.687 -2.238,0.687c-0.759,0 -1.432,-0.186 -2.017,-0.555c-0.441,-0.278 -0.926,-0.834 -1.456,-1.662l0,8.627l-2.444,0l0,-24.651l2.444,-0l0,7.549c0,2.741 0.117,4.52 0.356,5.331c0.24,0.81 0.626,1.452 1.16,1.921c0.537,0.47 1.151,0.705 1.847,0.705c0.734,-0 1.387,-0.246 1.964,-0.739c0.576,-0.493 0.984,-1.128 1.223,-1.905c0.237,-0.779 0.356,-2.532 0.356,-5.261l0,-7.601l2.43,-0Zm4.284,17.82l0,-24.603l7.553,0c1.537,0 2.77,0.249 3.7,0.748c0.928,0.498 1.657,1.266 2.184,2.3c0.525,1.034 0.79,2.116 0.79,3.248c-0,1.051 -0.235,2.042 -0.701,2.97c-0.469,0.928 -1.172,1.678 -2.116,2.248c1.219,0.435 2.154,1.18 2.81,2.231c0.654,1.051 0.982,2.294 0.982,3.726c-0,1.152 -0.2,2.223 -0.598,3.214c-0.398,0.991 -0.89,1.753 -1.476,2.291c-0.586,0.536 -1.322,0.943 -2.205,1.218c-0.884,0.272 -1.967,0.409 -3.246,0.409l-7.677,0Zm2.664,-2.901l5.013,-0c0.86,-0 1.465,-0.04 1.811,-0.118c0.614,-0.134 1.125,-0.358 1.538,-0.673c0.412,-0.312 0.752,-0.767 1.017,-1.366c0.265,-0.599 0.398,-1.289 0.398,-2.074c0,-0.916 -0.192,-1.715 -0.576,-2.391c-0.385,-0.676 -0.919,-1.151 -1.601,-1.426c-0.682,-0.275 -1.664,-0.41 -2.946,-0.41l-4.654,-0l0,8.458Zm0,-11.362l4.352,-0c1.181,-0 2.03,-0.095 2.54,-0.287c0.678,-0.246 1.189,-0.653 1.533,-1.223c0.342,-0.572 0.513,-1.288 0.513,-2.148c0,-0.819 -0.159,-1.538 -0.48,-2.156c-0.319,-0.622 -0.778,-1.049 -1.373,-1.278c-0.596,-0.229 -1.615,-0.344 -3.061,-0.344l-4.024,0l0,7.436Z" style="fill:rgb(242,139,54);"/></g></svg>